<?xml version="1.0" encoding="UTF-8" standalone="no"?>
<svg
   xmlns:dc="http://purl.org/dc/elements/1.1/"
   xmlns:cc="http://creativecommons.org/ns#"
   xmlns:rdf="http://www.w3.org/1999/02/22-rdf-syntax-ns#"
   xmlns:svg="http://www.w3.org/2000/svg"
   xmlns="http://www.w3.org/2000/svg"
   xmlns:sodipodi="http://sodipodi.sourceforge.net/DTD/sodipodi-0.dtd"
   xmlns:inkscape="http://www.inkscape.org/namespaces/inkscape"
   inkscape:version="1.0 (4035a4fb49, 2020-05-01)"
   sodipodi:docname="alldesktops.svg"
   id="svg56"
   version="1.1"
   height="90"
   width="50">
  <metadata
     id="metadata62">
    <rdf:RDF>
      <cc:Work
         rdf:about="">
        <dc:format>image/svg+xml</dc:format>
        <dc:type
           rdf:resource="http://purl.org/dc/dcmitype/StillImage" />
        <dc:title>Vetro</dc:title>
      </cc:Work>
    </rdf:RDF>
  </metadata>
  <defs
     id="defs60" />
  <sodipodi:namedview
     inkscape:document-rotation="0"
     inkscape:current-layer="svg56"
     inkscape:window-maximized="0"
     inkscape:window-y="164"
     inkscape:window-x="2940"
     inkscape:cy="31.501751"
     inkscape:cx="74.539416"
     inkscape:zoom="2.6222222"
     inkscape:snap-bbox-edge-midpoints="true"
     inkscape:bbox-nodes="true"
     inkscape:snap-bbox="true"
     showgrid="true"
     id="namedview58"
     inkscape:window-height="1122"
     inkscape:window-width="1247"
     inkscape:pageshadow="2"
     inkscape:pageopacity="0"
     guidetolerance="10"
     gridtolerance="10"
     objecttolerance="10"
     borderopacity="1"
     bordercolor="#666666"
     pagecolor="#3d3d3d">
    <inkscape:grid
       id="grid869"
       type="xygrid" />
  </sodipodi:namedview>
  <title
     id="title2">Vetro</title>
  <g
     inkscape:label="#deactivated-center"
     transform="translate(13,95)"
     id="deactivated-center">
    <path
       style="fill:#899abf;fill-opacity:1"
       id="path2"
       d="M 17,3 H 7 C 5.9,3 5.01,3.9 5.01,5 L 5,21 l 7,-3 7,3 V 5 C 19,3.9 18.1,3 17,3 Z" />
    <path
       id="path4"
       fill="none"
       d="M 0,0 H 24 V 24 H 0 Z" />
  </g>
  <g
     inkscape:label="#pressed-center"
     transform="translate(13,65)"
     id="pressed-center">
    <path
       d="M 17,3 H 7 C 5.9,3 5.01,3.9 5.01,5 L 5,21 l 7,-3 7,3 V 5 C 19,3.9 18.1,3 17,3 Z"
       id="path2-6"
       style="fill:#899abf;fill-opacity:1" />
    <path
       d="M 0,0 H 24 V 24 H 0 Z"
       fill="none"
       id="path4-7" />
    <path
       style="fill:#2e3440;fill-opacity:1;stroke-width:0.563436"
       id="path2-6-3"
       d="M 14.957137,5.8 H 9.242857 C 8.6142862,5.8 8.1057138,6.3 8.1057138,6.9111114 L 8.1,15.8 12.1,14.133334 16.1,15.8 V 6.9111114 C 16.1,6.3 15.585706,5.8 14.957137,5.8 Z" />
  </g>
  <g
     inkscape:label="#active-center"
     transform="translate(13,5)"
     id="active-center">
    <path
       d="M 17,3 H 7 C 5.9,3 5.01,3.9 5.01,5 L 5,21 l 7,-3 7,3 V 5 C 19,3.9 18.1,3 17,3 Z"
       id="path2-2"
       style="fill:#899abf;fill-opacity:1" />
    <path
       d="M 0,0 H 24 V 24 H 0 Z"
       fill="none"
       id="path4-9" />
  </g>
  <g
     inkscape:label="#inactive-center"
     transform="translate(78,5)"
     id="inactive-center">
    <path
       d="M 17,3 H 7 C 5.9,3 5.01,3.9 5.01,5 L 5,21 l 7,-3 7,3 V 5 C 19,3.9 18.1,3 17,3 Z"
       id="path2-27"
       style="fill:#899abf;fill-opacity:1" />
    <path
       d="M 0,0 H 24 V 24 H 0 Z"
       fill="none"
       id="path4-0" />
  </g>
  <g
     inkscape:label="#deactivated-inactive-center"
     transform="translate(78,95)"
     id="deactivated-inactive-center">
    <path
       d="M 17,3 H 7 C 5.9,3 5.01,3.9 5.01,5 L 5,21 l 7,-3 7,3 V 5 C 19,3.9 18.1,3 17,3 Z"
       id="path2-9"
       style="fill:#899abf;fill-opacity:1" />
    <path
       d="M 0,0 H 24 V 24 H 0 Z"
       fill="none"
       id="path4-2" />
  </g>
  <g
     id="pressed-inactive-center"
     inkscape:label="#pressed-inactive-center"
     transform="translate(78,65)">
    <path
       style="fill:#899abf;fill-opacity:1"
       id="path2-6-6"
       d="M 17,3 H 7 C 5.9,3 5.01,3.9 5.01,5 L 5,21 l 7,-3 7,3 V 5 C 19,3.9 18.1,3 17,3 Z" />
    <path
       id="path4-7-7"
       fill="none"
       d="M 0,0 H 24 V 24 H 0 Z" />
    <path
       d="M 14.957137,5.8 H 9.242857 C 8.6142862,5.8 8.1057138,6.3 8.1057138,6.9111114 L 8.1,15.8 12.1,14.133334 16.1,15.8 V 6.9111114 C 16.1,6.3 15.585706,5.8 14.957137,5.8 Z"
       id="path2-6-3-5"
       style="fill:#2e3440;fill-opacity:1;stroke-width:0.563436" />
  </g>
  <g
     transform="translate(78,35)"
     id="hover-inactive-center"
     inkscape:label="#hover-inactive-center">
    <path
       style="fill:#899abf;fill-opacity:1"
       id="path2-6-67"
       d="M 17,3 H 7 C 5.9,3 5.01,3.9 5.01,5 L 5,21 l 7,-3 7,3 V 5 C 19,3.9 18.1,3 17,3 Z" />
    <path
       id="path4-7-5"
       fill="none"
       d="M 0,0 H 24 V 24 H 0 Z" />
    <path
       d="M 14.957137,5.8 H 9.242857 C 8.6142862,5.8 8.1057138,6.3 8.1057138,6.9111114 L 8.1,15.8 12.1,14.133334 16.1,15.8 V 6.9111114 C 16.1,6.3 15.585706,5.8 14.957137,5.8 Z"
       id="path2-6-3-3"
       style="fill:#2e3440;fill-opacity:1;stroke-width:0.563436" />
  </g>
  <g
     transform="translate(13,35)"
     id="hover-center"
     inkscape:label="#hover-center">
    <path
       style="fill:#899abf;fill-opacity:1"
       id="path2-6-62"
       d="M 17,3 H 7 C 5.9,3 5.01,3.9 5.01,5 L 5,21 l 7,-3 7,3 V 5 C 19,3.9 18.1,3 17,3 Z" />
    <path
       id="path4-7-9"
       fill="none"
       d="M 0,0 H 24 V 24 H 0 Z" />
    <path
       d="M 14.957137,5.8 H 9.242857 C 8.6142862,5.8 8.1057138,6.3 8.1057138,6.9111114 L 8.1,15.8 12.1,14.133334 16.1,15.8 V 6.9111114 C 16.1,6.3 15.585706,5.8 14.957137,5.8 Z"
       id="path2-6-3-1"
       style="fill:#2e3440;fill-opacity:1;stroke-width:0.563436" />
  </g>
</svg>
