<?xml version="1.0" encoding="UTF-8" standalone="no"?>
<svg
   xmlns:osb="http://www.openswatchbook.org/uri/2009/osb"
   xmlns:dc="http://purl.org/dc/elements/1.1/"
   xmlns:cc="http://creativecommons.org/ns#"
   xmlns:rdf="http://www.w3.org/1999/02/22-rdf-syntax-ns#"
   xmlns:svg="http://www.w3.org/2000/svg"
   xmlns="http://www.w3.org/2000/svg"
   xmlns:xlink="http://www.w3.org/1999/xlink"
   xmlns:sodipodi="http://sodipodi.sourceforge.net/DTD/sodipodi-0.dtd"
   xmlns:inkscape="http://www.inkscape.org/namespaces/inkscape"
   inkscape:version="1.0 (4035a4fb49, 2020-05-01)"
   sodipodi:docname="close.svg"
   style="enable-background:new"
   version="1.1"
   height="23"
   width="23"
   id="svg4306">
  <metadata
     id="metadata31">
    <rdf:RDF>
      <cc:Work
         rdf:about="">
        <dc:format>image/svg+xml</dc:format>
        <dc:type
           rdf:resource="http://purl.org/dc/dcmitype/StillImage" />
        <dc:title />
      </cc:Work>
    </rdf:RDF>
  </metadata>
  <defs
     id="defs29">
    <linearGradient
       osb:paint="solid"
       id="fg_color">
      <stop
         id="stop1387"
         offset="0"
         style="stop-color:#d3dae3;stop-opacity:1;" />
    </linearGradient>
    <linearGradient
       osb:paint="solid"
       id="selected_fg_color">
      <stop
         id="stop6555"
         offset="0"
         style="stop-color:#ffffffgit;stop-opacity:1;" />
    </linearGradient>
    <linearGradient
       xlink:href="#selected_fg_color"
       gradientUnits="userSpaceOnUse"
       y2="145.13"
       y1="145.13"
       x2="50.099998"
       x1="47.266998"
       id="y" />
  </defs>
  <sodipodi:namedview
     inkscape:document-rotation="0"
     inkscape:snap-nodes="false"
     inkscape:bbox-nodes="true"
     inkscape:snap-bbox="true"
     inkscape:current-layer="svg4306"
     inkscape:window-maximized="0"
     inkscape:window-y="221"
     inkscape:window-x="3186"
     inkscape:cy="5.5573803"
     inkscape:cx="7.7817291"
     inkscape:zoom="3.7926637"
     showgrid="true"
     id="namedview27"
     inkscape:window-height="1122"
     inkscape:window-width="1247"
     inkscape:pageshadow="2"
     inkscape:pageopacity="0"
     guidetolerance="10"
     gridtolerance="10"
     objecttolerance="10"
     borderopacity="1"
     bordercolor="#666666"
     pagecolor="#303030">
    <inkscape:grid
       id="grid892"
       type="xygrid" />
  </sodipodi:namedview>
  <g
     inkscape:label="#pressed-center"
     transform="translate(0,60)"
     id="pressed-center"
     style="opacity:1">
    <path
       id="path60"
       fill="none"
       d="M 0,0 H 24 V 24 H 0 Z" />
    <path
       style="fill:#ff9cda;fill-opacity:1"
       id="path62"
       d="M 12,21.35 10.55,20.03 C 5.4,15.36 2,12.28 2,8.5 2,5.42 4.42,3 7.5,3 9.24,3 10.91,3.81 12,5.09 13.09,3.81 14.76,3 16.5,3 19.58,3 22,5.42 22,8.5 c 0,3.78 -3.4,6.86 -8.55,11.54 z" />
  </g>
  <g
     transform="translate(0,30)"
     style="opacity:0.199234;enable-background:new"
     id="hover-center"
     inkscape:label="#hover-center">
    <path
       d="M 0,0 H 24 V 24 H 0 Z"
       fill="none"
       id="path60-6" />
    <path
       d="M 12,21.35 10.55,20.03 C 5.4,15.36 2,12.28 2,8.5 2,5.42 4.42,3 7.5,3 9.24,3 10.91,3.81 12,5.09 13.09,3.81 14.76,3 16.5,3 19.58,3 22,5.42 22,8.5 c 0,3.78 -3.4,6.86 -8.55,11.54 z"
       id="path62-7"
       style="fill:#ff9cda;fill-opacity:1" />
  </g>
  <g
     style="enable-background:new"
     id="active-center"
     inkscape:label="#active-center">
    <path
       d="M 0,0 H 24 V 24 H 0 Z"
       fill="none"
       id="path60-3" />
    <path
       d="M 12,21.35 10.55,20.03 C 5.4,15.36 2,12.28 2,8.5 2,5.42 4.42,3 7.5,3 9.24,3 10.91,3.81 12,5.09 13.09,3.81 14.76,3 16.5,3 19.58,3 22,5.42 22,8.5 c 0,3.78 -3.4,6.86 -8.55,11.54 z"
       id="path62-5"
       style="fill:#ff9cda;fill-opacity:1" />
  </g>
  <g
     transform="translate(0,-30)"
     style="opacity:1;enable-background:new"
     id="inactive-center"
     inkscape:label="#inactive-center">
    <path
       d="M 0,0 H 24 V 24 H 0 Z"
       fill="none"
       id="path60-2" />
    <path
       d="M 12,21.35 10.55,20.03 C 5.4,15.36 2,12.28 2,8.5 2,5.42 4.42,3 7.5,3 9.24,3 10.91,3.81 12,5.09 13.09,3.81 14.76,3 16.5,3 19.58,3 22,5.42 22,8.5 c 0,3.78 -3.4,6.86 -8.55,11.54 z"
       id="path62-9"
       style="fill:#ff9cda;fill-opacity:1" />
  </g>
  <g
     transform="translate(0,-60)"
     style="enable-background:new"
     id="deactivated-center"
     inkscape:label="#deactivated-center">
    <path
       d="M 0,0 H 24 V 24 H 0 Z"
       fill="none"
       id="path60-27" />
    <path
       d="M 12,21.35 10.55,20.03 C 5.4,15.36 2,12.28 2,8.5 2,5.42 4.42,3 7.5,3 9.24,3 10.91,3.81 12,5.09 13.09,3.81 14.76,3 16.5,3 19.58,3 22,5.42 22,8.5 c 0,3.78 -3.4,6.86 -8.55,11.54 z"
       id="path62-0"
       style="fill:#ff9cda;fill-opacity:1" />
  </g>
</svg>
